<svg width="32" height="32" viewBox="0 0 20 20" fill="none" xmlns="http://www.w3.org/2000/svg">
<path d="M10 15C10.2833 15 10.521 14.904 10.713 14.712C10.9043 14.5207 11 14.2833 11 14V11H14.025C14.3083 11 14.5417 10.904 14.725 10.712C14.9083 10.5207 15 10.2833 15 10C15 9.71667 14.904 9.479 14.712 9.287C14.5207 9.09567 14.2833 9 14 9H11V5.975C11 5.69167 10.9043 5.45833 10.713 5.275C10.521 5.09167 10.2833 5 10 5C9.71667 5 9.47933 5.09567 9.288 5.287C9.096 5.479 9 5.71667 9 6V9H5.975C5.69167 9 5.45833 9.09567 5.275 9.287C5.09167 9.479 5 9.71667 5 10C5 10.2833 5.09567 10.5207 5.287 10.712C5.479 10.904 5.71667 11 6 11H9V14.025C9 14.3083 9.096 14.5417 9.288 14.725C9.47933 14.9083 9.71667 15 10 15ZM10 20C8.61667 20 7.31667 19.7373 6.1 19.212C4.88333 18.6873 3.825 17.975 2.925 17.075C2.025 16.175 1.31267 15.1167 0.788 13.9C0.262667 12.6833 0 11.3833 0 10C0 8.61667 0.262667 7.31667 0.788 6.1C1.31267 4.88333 2.025 3.825 2.925 2.925C3.825 2.025 4.88333 1.31233 6.1 0.787C7.31667 0.262333 8.61667 0 10 0C11.3833 0 12.6833 0.262333 13.9 0.787C15.1167 1.31233 16.175 2.025 17.075 2.925C17.975 3.825 18.6873 4.88333 19.212 6.1C19.7373 7.31667 20 8.61667 20 10C20 11.3833 19.7373 12.6833 19.212 13.9C18.6873 15.1167 17.975 16.175 17.075 17.075C16.175 17.975 15.1167 18.6873 13.9 19.212C12.6833 19.7373 11.3833 20 10 20Z" fill="black"/>
</svg>
