<svg width="35" height="35" viewBox="0 0 35 35" fill="none" xmlns="http://www.w3.org/2000/svg">
<path d="M7.29167 30.625C6.48958 30.625 5.80271 30.3397 5.23104 29.769C4.66035 29.1973 4.375 28.5104 4.375 27.7083V9.47917C4.375 9.11458 4.43576 8.78646 4.55729 8.49479C4.67882 8.20312 4.83681 7.92361 5.03125 7.65625L7.07292 5.17708C7.26736 4.90972 7.51042 4.70896 7.80208 4.57479C8.09375 4.4416 8.40972 4.375 8.75 4.375H26.25C26.5903 4.375 26.9063 4.4416 27.1979 4.57479C27.4896 4.70896 27.7326 4.90972 27.9271 5.17708L29.9687 7.65625C30.1632 7.92361 30.3212 8.20312 30.4427 8.49479C30.5642 8.78646 30.625 9.11458 30.625 9.47917V27.7083C30.625 28.5104 30.3397 29.1973 29.769 29.769C29.1973 30.3397 28.5104 30.625 27.7083 30.625H7.29167ZM7.875 8.75H27.125L25.8854 7.29167H9.11458L7.875 8.75ZM7.29167 27.7083H27.7083V11.6667H7.29167V27.7083ZM17.5 25.6302C17.6944 25.6302 17.8767 25.5996 18.0469 25.5383C18.217 25.4781 18.375 25.375 18.5208 25.2292L22.3125 21.4375C22.5799 21.1701 22.7135 20.8299 22.7135 20.4167C22.7135 20.0035 22.5799 19.6632 22.3125 19.3958C22.0451 19.1285 21.7049 18.9948 21.2917 18.9948C20.8785 18.9948 20.5382 19.1285 20.2708 19.3958L18.9583 20.7083V16.0417C18.9583 15.6285 18.8188 15.2819 18.5398 15.0019C18.2598 14.7228 17.9132 14.5833 17.5 14.5833C17.0868 14.5833 16.7407 14.7228 16.4617 15.0019C16.1817 15.2819 16.0417 15.6285 16.0417 16.0417V20.7083L14.7292 19.3958C14.4618 19.1285 14.1215 18.9948 13.7083 18.9948C13.2951 18.9948 12.9549 19.1285 12.6875 19.3958C12.4201 19.6632 12.2865 20.0035 12.2865 20.4167C12.2865 20.8299 12.4201 21.1701 12.6875 21.4375L16.4792 25.2292C16.625 25.375 16.783 25.4781 16.9531 25.5383C17.1233 25.5996 17.3056 25.6302 17.5 25.6302V25.6302ZM7.29167 27.7083V11.6667V27.7083Z" fill="#A5CAD2"/>
</svg>
