<svg width="27" height="27" viewBox="0 0 27 27" fill="none" xmlns="http://www.w3.org/2000/svg">
<path d="M3.29167 26.625C2.48958 26.625 1.80271 26.3397 1.23104 25.769C0.660347 25.1973 0.375 24.5104 0.375 23.7083V5.47917C0.375 5.11458 0.435764 4.78646 0.557292 4.49479C0.678819 4.20312 0.836806 3.92361 1.03125 3.65625L3.07292 1.17708C3.26736 0.909722 3.51042 0.708958 3.80208 0.574792C4.09375 0.441597 4.40972 0.375 4.75 0.375H22.25C22.5903 0.375 22.9063 0.441597 23.1979 0.574792C23.4896 0.708958 23.7326 0.909722 23.9271 1.17708L25.9687 3.65625C26.1632 3.92361 26.3212 4.20312 26.4427 4.49479C26.5642 4.78646 26.625 5.11458 26.625 5.47917V23.7083C26.625 24.5104 26.3397 25.1973 25.769 25.769C25.1973 26.3397 24.5104 26.625 23.7083 26.625H3.29167ZM3.875 4.75H23.125L21.8854 3.29167H5.11458L3.875 4.75ZM3.29167 23.7083H23.7083V7.66667H3.29167V23.7083ZM13.5 21.6302C13.6944 21.6302 13.8767 21.5996 14.0469 21.5383C14.217 21.4781 14.375 21.375 14.5208 21.2292L18.3125 17.4375C18.5799 17.1701 18.7135 16.8299 18.7135 16.4167C18.7135 16.0035 18.5799 15.6632 18.3125 15.3958C18.0451 15.1285 17.7049 14.9948 17.2917 14.9948C16.8785 14.9948 16.5382 15.1285 16.2708 15.3958L14.9583 16.7083V12.0417C14.9583 11.6285 14.8188 11.2819 14.5398 11.0019C14.2598 10.7228 13.9132 10.5833 13.5 10.5833C13.0868 10.5833 12.7407 10.7228 12.4617 11.0019C12.1817 11.2819 12.0417 11.6285 12.0417 12.0417V16.7083L10.7292 15.3958C10.4618 15.1285 10.1215 14.9948 9.70833 14.9948C9.29514 14.9948 8.95486 15.1285 8.6875 15.3958C8.42014 15.6632 8.28646 16.0035 8.28646 16.4167C8.28646 16.8299 8.42014 17.1701 8.6875 17.4375L12.4792 21.2292C12.625 21.375 12.783 21.4781 12.9531 21.5383C13.1233 21.5996 13.3056 21.6302 13.5 21.6302V21.6302ZM3.29167 23.7083V7.66667V23.7083Z" fill="#FF7B89"/>
</svg>
