<svg width="12" height="14" viewBox="0 0 12 14" fill="none" xmlns="http://www.w3.org/2000/svg">
<path d="M2.25 14C1.8375 14 1.4845 13.8478 1.191 13.5434C0.897 13.2386 0.75 12.8722 0.75 12.4444V2.33333C0.5375 2.33333 0.35925 2.25893 0.21525 2.11011C0.0717501 1.96078 0 1.77593 0 1.55556C0 1.33519 0.0717501 1.15033 0.21525 1.001C0.35925 0.852185 0.5375 0.777778 0.75 0.777778H3.75C3.75 0.557407 3.822 0.372556 3.966 0.223222C4.1095 0.0744074 4.2875 0 4.5 0H7.5C7.7125 0 7.89075 0.0744074 8.03475 0.223222C8.17825 0.372556 8.25 0.557407 8.25 0.777778H11.25C11.4625 0.777778 11.6405 0.852185 11.784 1.001C11.928 1.15033 12 1.33519 12 1.55556C12 1.77593 11.928 1.96078 11.784 2.11011C11.6405 2.25893 11.4625 2.33333 11.25 2.33333V12.4444C11.25 12.8722 11.1033 13.2386 10.8098 13.5434C10.5158 13.8478 10.1625 14 9.75 14H2.25ZM2.25 2.33333V12.4444H9.75V2.33333H2.25ZM3.75 10.1111C3.75 10.3315 3.822 10.5161 3.966 10.6649C4.1095 10.8142 4.2875 10.8889 4.5 10.8889C4.7125 10.8889 4.89075 10.8142 5.03475 10.6649C5.17825 10.5161 5.25 10.3315 5.25 10.1111V4.66667C5.25 4.4463 5.17825 4.26144 5.03475 4.11211C4.89075 3.9633 4.7125 3.88889 4.5 3.88889C4.2875 3.88889 4.1095 3.9633 3.966 4.11211C3.822 4.26144 3.75 4.4463 3.75 4.66667V10.1111ZM6.75 10.1111C6.75 10.3315 6.822 10.5161 6.966 10.6649C7.1095 10.8142 7.2875 10.8889 7.5 10.8889C7.7125 10.8889 7.89075 10.8142 8.03475 10.6649C8.17825 10.5161 8.25 10.3315 8.25 10.1111V4.66667C8.25 4.4463 8.17825 4.26144 8.03475 4.11211C7.89075 3.9633 7.7125 3.88889 7.5 3.88889C7.2875 3.88889 7.1095 3.9633 6.966 4.11211C6.822 4.26144 6.75 4.4463 6.75 4.66667V10.1111ZM2.25 2.33333V12.4444V2.33333Z" fill="#A5CAD2"/>
</svg>
