<svg width="20" height="24" viewBox="0 0 20 24" fill="none" xmlns="http://www.w3.org/2000/svg">
<path d="M3.75 24C3.0625 24 2.47417 23.7391 1.985 23.2173C1.495 22.6947 1.25 22.0667 1.25 21.3333V4C0.895833 4 0.59875 3.87244 0.35875 3.61733C0.119584 3.36133 0 3.04444 0 2.66667C0 2.28889 0.119584 1.972 0.35875 1.716C0.59875 1.46089 0.895833 1.33333 1.25 1.33333H6.25C6.25 0.955556 6.37 0.638667 6.61 0.382667C6.84917 0.127555 7.14583 0 7.5 0H12.5C12.8542 0 13.1513 0.127555 13.3913 0.382667C13.6304 0.638667 13.75 0.955556 13.75 1.33333H18.75C19.1042 1.33333 19.4008 1.46089 19.64 1.716C19.88 1.972 20 2.28889 20 2.66667C20 3.04444 19.88 3.36133 19.64 3.61733C19.4008 3.87244 19.1042 4 18.75 4V21.3333C18.75 22.0667 18.5054 22.6947 18.0163 23.2173C17.5263 23.7391 16.9375 24 16.25 24H3.75ZM3.75 4V21.3333H16.25V4H3.75ZM6.25 17.3333C6.25 17.7111 6.37 18.0276 6.61 18.2827C6.84917 18.5387 7.14583 18.6667 7.5 18.6667C7.85417 18.6667 8.15125 18.5387 8.39125 18.2827C8.63042 18.0276 8.75 17.7111 8.75 17.3333V8C8.75 7.62222 8.63042 7.30533 8.39125 7.04933C8.15125 6.79422 7.85417 6.66667 7.5 6.66667C7.14583 6.66667 6.84917 6.79422 6.61 7.04933C6.37 7.30533 6.25 7.62222 6.25 8V17.3333ZM11.25 17.3333C11.25 17.7111 11.37 18.0276 11.61 18.2827C11.8492 18.5387 12.1458 18.6667 12.5 18.6667C12.8542 18.6667 13.1513 18.5387 13.3913 18.2827C13.6304 18.0276 13.75 17.7111 13.75 17.3333V8C13.75 7.62222 13.6304 7.30533 13.3913 7.04933C13.1513 6.79422 12.8542 6.66667 12.5 6.66667C12.1458 6.66667 11.8492 6.79422 11.61 7.04933C11.37 7.30533 11.25 7.62222 11.25 8V17.3333ZM3.75 4V21.3333V4Z" fill="#FF7B89"/>
</svg>
