<svg width="17" height="20" viewBox="0 0 17 20" fill="none" xmlns="http://www.w3.org/2000/svg">
<path d="M3.1875 20C2.60312 20 2.10304 19.7826 1.68725 19.3478C1.27075 18.9122 1.0625 18.3889 1.0625 17.7778V3.33333C0.761458 3.33333 0.508938 3.22704 0.304938 3.01444C0.101646 2.80111 0 2.53704 0 2.22222C0 1.90741 0.101646 1.64333 0.304938 1.43C0.508938 1.21741 0.761458 1.11111 1.0625 1.11111H5.3125C5.3125 0.796296 5.4145 0.532222 5.6185 0.318889C5.82179 0.106296 6.07396 0 6.375 0H10.625C10.926 0 11.1786 0.106296 11.3826 0.318889C11.5859 0.532222 11.6875 0.796296 11.6875 1.11111H15.9375C16.2385 1.11111 16.4907 1.21741 16.694 1.43C16.898 1.64333 17 1.90741 17 2.22222C17 2.53704 16.898 2.80111 16.694 3.01444C16.4907 3.22704 16.2385 3.33333 15.9375 3.33333V17.7778C15.9375 18.3889 15.7296 18.9122 15.3138 19.3478C14.8973 19.7826 14.3969 20 13.8125 20H3.1875ZM3.1875 3.33333V17.7778H13.8125V3.33333H3.1875ZM5.3125 14.4444C5.3125 14.7593 5.4145 15.023 5.6185 15.2356C5.82179 15.4489 6.07396 15.5556 6.375 15.5556C6.67604 15.5556 6.92856 15.4489 7.13256 15.2356C7.33585 15.023 7.4375 14.7593 7.4375 14.4444V6.66667C7.4375 6.35185 7.33585 6.08778 7.13256 5.87444C6.92856 5.66185 6.67604 5.55556 6.375 5.55556C6.07396 5.55556 5.82179 5.66185 5.6185 5.87444C5.4145 6.08778 5.3125 6.35185 5.3125 6.66667V14.4444ZM9.5625 14.4444C9.5625 14.7593 9.6645 15.023 9.8685 15.2356C10.0718 15.4489 10.324 15.5556 10.625 15.5556C10.926 15.5556 11.1786 15.4489 11.3826 15.2356C11.5859 15.023 11.6875 14.7593 11.6875 14.4444V6.66667C11.6875 6.35185 11.5859 6.08778 11.3826 5.87444C11.1786 5.66185 10.926 5.55556 10.625 5.55556C10.324 5.55556 10.0718 5.66185 9.8685 5.87444C9.6645 6.08778 9.5625 6.35185 9.5625 6.66667V14.4444ZM3.1875 3.33333V17.7778V3.33333Z" fill="#FF7B89"/>
</svg>
