<svg width="17" height="17" viewBox="0 0 17 17" fill="none" xmlns="http://www.w3.org/2000/svg">
<path d="M5.06458 14.9458C4.88749 14.7688 4.79895 14.5591 4.79895 14.3168C4.79895 14.0751 4.88749 13.8656 5.06458 13.6886L10.2531 8.50001L5.04687 3.29376C4.88159 3.12848 4.79895 2.92189 4.79895 2.67397C4.79895 2.42605 4.88749 2.21355 5.06458 2.03647C5.24166 1.85939 5.45133 1.77084 5.69358 1.77084C5.93535 1.77084 6.14478 1.85939 6.32187 2.03647L12.2719 8.00418C12.3427 8.07501 12.393 8.15175 12.4227 8.23439C12.452 8.31702 12.4667 8.40557 12.4667 8.50001C12.4667 8.59446 12.452 8.683 12.4227 8.76564C12.393 8.84827 12.3427 8.92501 12.2719 8.99584L6.30416 14.9636C6.13888 15.1288 5.93535 15.2115 5.69358 15.2115C5.45133 15.2115 5.24166 15.1229 5.06458 14.9458Z" fill="#A5CAD2"/>
</svg>
