<svg width="25" height="11" viewBox="0 0 25 11" fill="none" xmlns="http://www.w3.org/2000/svg">
<path d="M12.4804 10.9963C12.0639 10.997 11.6602 10.8692 11.3395 10.635L0.643966 2.78196C0.279931 2.51536 0.0510022 2.13227 0.00754305 1.71696C-0.0359161 1.30165 0.109654 0.888134 0.412229 0.567388C0.714804 0.246642 1.1496 0.0449373 1.62096 0.00664609C2.09233 -0.0316451 2.56165 0.0966137 2.92569 0.363208L12.4804 7.39957L22.0351 0.614508C22.2174 0.484043 22.4272 0.386615 22.6525 0.327824C22.8777 0.269033 23.1138 0.250038 23.3474 0.271932C23.581 0.293825 23.8073 0.356173 24.0135 0.455395C24.2196 0.554617 24.4015 0.688756 24.5486 0.8501C24.7118 1.01159 24.8354 1.20105 24.9117 1.4066C24.988 1.61216 25.0153 1.82937 24.9919 2.04465C24.9684 2.25992 24.8948 2.46861 24.7756 2.65765C24.6563 2.84668 24.4941 3.01198 24.299 3.1432L13.6034 10.7293C13.2735 10.9264 12.8781 11.0204 12.4804 10.9963V10.9963Z" fill="#A5CAD2"/>
</svg>
