<svg width="18" height="18" viewBox="0 0 18 18" fill="none" xmlns="http://www.w3.org/2000/svg">
<path d="M2.20302 18C1.68252 18 1.23679 17.8148 0.865816 17.4445C0.495474 17.0735 0.310303 16.6278 0.310303 16.1073V4.27778C0.310303 4.05696 0.349734 3.84781 0.428598 3.65034C0.507461 3.4535 0.609983 3.26832 0.736165 3.09483L2.06107 1.48601C2.18725 1.31251 2.34498 1.18223 2.53425 1.09517C2.72352 1.00873 2.92857 0.965515 3.14938 0.965515H14.5057C14.7265 0.965515 14.9316 1.00873 15.1208 1.09517C15.3101 1.18223 15.4678 1.31251 15.594 1.48601L16.9189 3.09483C17.0451 3.26832 17.1476 3.4535 17.2265 3.65034C17.3054 3.84781 17.3448 4.05696 17.3448 4.27778V16.1073C17.3448 16.6278 17.1596 17.0735 16.7893 17.4445C16.4183 17.8148 15.9726 18 15.4521 18H2.20302ZM2.58157 3.8046H15.0735L14.2691 2.85824H3.38597L2.58157 3.8046ZM2.20302 16.1073H15.4521V5.69732H2.20302V16.1073ZM8.82754 14.2146C9.09568 14.2146 9.3206 14.1237 9.5023 13.942C9.68337 13.7609 9.7739 13.5363 9.7739 13.2682V10.2398L10.6256 11.0916C10.7991 11.2651 11.0199 11.3518 11.2881 11.3518C11.5562 11.3518 11.777 11.2651 11.9505 11.0916C12.124 10.9181 12.2108 10.6973 12.2108 10.4291C12.2108 10.161 12.124 9.94016 11.9505 9.76666L9.49 7.30613C9.39536 7.21149 9.29284 7.1443 9.18243 7.10455C9.07202 7.06544 8.95373 7.04588 8.82754 7.04588C8.70136 7.04588 8.58307 7.06544 8.47266 7.10455C8.36225 7.1443 8.25973 7.21149 8.16509 7.30613L5.70456 9.76666C5.53106 9.94016 5.44431 10.161 5.44431 10.4291C5.44431 10.6973 5.53106 10.9181 5.70456 11.0916C5.87805 11.2651 6.09887 11.3518 6.36701 11.3518C6.63514 11.3518 6.85596 11.2651 7.02946 11.0916L7.88118 10.2398V13.2682C7.88118 13.5363 7.97203 13.7609 8.15374 13.942C8.33481 14.1237 8.55941 14.2146 8.82754 14.2146ZM2.20302 16.1073V5.69732V16.1073Z" fill="rgba(255, 123, 137, 0.7)"/>
</svg>
