<svg width="26" height="26" viewBox="0 0 26 26" fill="none" xmlns="http://www.w3.org/2000/svg">
<path d="M2.88889 26C2.09444 26 1.41411 25.7174 0.847889 25.1521C0.282629 24.5859 0 23.9056 0 23.1111V5.05556C0 4.71852 0.0601852 4.3993 0.180556 4.09789C0.300926 3.79744 0.457407 3.51481 0.65 3.25L2.67222 0.794444C2.86481 0.52963 3.10556 0.330778 3.39444 0.197889C3.68333 0.0659631 3.9963 0 4.33333 0H21.6667C22.0037 0 22.3167 0.0659631 22.6056 0.197889C22.8944 0.330778 23.1352 0.52963 23.3278 0.794444L25.35 3.25C25.5426 3.51481 25.6991 3.79744 25.8194 4.09789C25.9398 4.3993 26 4.71852 26 5.05556V23.1111C26 23.9056 25.7174 24.5859 25.1521 25.1521C24.5859 25.7174 23.9056 26 23.1111 26H2.88889ZM3.46667 4.33333H22.5333L21.3056 2.88889H4.69444L3.46667 4.33333ZM2.88889 23.1111H23.1111V7.22222H2.88889V23.1111ZM13 20.2222C13.4093 20.2222 13.7526 20.0836 14.0299 19.8062C14.3063 19.5299 14.4444 19.187 14.4444 18.7778V14.1556L15.7444 15.4556C16.0093 15.7204 16.3463 15.8528 16.7556 15.8528C17.1648 15.8528 17.5019 15.7204 17.7667 15.4556C18.0315 15.1907 18.1639 14.8537 18.1639 14.4444C18.1639 14.0352 18.0315 13.6981 17.7667 13.4333L14.0111 9.67778C13.8667 9.53333 13.7102 9.43078 13.5417 9.37011C13.3731 9.31041 13.1926 9.28056 13 9.28056C12.8074 9.28056 12.6269 9.31041 12.4583 9.37011C12.2898 9.43078 12.1333 9.53333 11.9889 9.67778L8.23333 13.4333C7.96852 13.6981 7.83611 14.0352 7.83611 14.4444C7.83611 14.8537 7.96852 15.1907 8.23333 15.4556C8.49815 15.7204 8.83518 15.8528 9.24444 15.8528C9.6537 15.8528 9.99074 15.7204 10.2556 15.4556L11.5556 14.1556V18.7778C11.5556 19.187 11.6942 19.5299 11.9716 19.8062C12.2479 20.0836 12.5907 20.2222 13 20.2222ZM2.88889 23.1111V7.22222V23.1111Z" fill="rgba(255, 123, 137, 0.8)"/>
</svg>
