<svg width="19" height="22" viewBox="0 0 19 22" fill="none" xmlns="http://www.w3.org/2000/svg">
<path d="M9.27523 13.0037H9.32494C10.3902 13.0322 11.2425 13.8986 11.2425 14.9639C11.2425 15.8729 10.6246 16.6329 9.78657 16.8601V17.6555C9.78657 17.9396 9.55931 18.1669 9.27523 18.1669C8.99115 18.1669 8.76389 17.9396 8.76389 17.6555V16.8601C8.34659 16.7479 7.97787 16.5014 7.71471 16.1586C7.45155 15.8159 7.30861 15.396 7.30798 14.9639C7.30798 14.6798 7.53525 14.4526 7.81933 14.4526C8.1034 14.4526 8.33067 14.6798 8.33067 14.9639C8.33067 15.4894 8.74968 15.9085 9.26813 15.9085C9.78657 15.9085 10.2127 15.4823 10.2127 14.9639C10.2127 14.4454 9.78657 14.0193 9.26813 14.0193H9.21841C8.70751 14.0055 8.22214 13.793 7.86542 13.427C7.50869 13.0609 7.30872 12.5703 7.30798 12.0592C7.30798 11.1501 7.92585 10.3902 8.76389 10.163V9.36754C8.76389 9.08346 8.99115 8.8562 9.27523 8.8562C9.55931 8.8562 9.78657 9.08346 9.78657 9.36754V10.163C10.6246 10.3902 11.2425 11.1501 11.2425 12.0592C11.2425 12.3433 11.0152 12.5705 10.7311 12.5705C10.4471 12.5705 10.2198 12.3433 10.2198 12.0592C10.2198 11.5407 9.79367 11.1146 9.27523 11.1146C8.75678 11.1146 8.33067 11.5407 8.33067 12.0592C8.33067 12.5776 8.75678 13.0037 9.27523 13.0037V13.0037Z" fill="white"/>
<path d="M5.50545 2.88697L7.48406 5.20221L7.27029 5.44084C3.19802 6.35415 0.15625 9.99107 0.15625 14.3389C0.15625 18.1612 3.25839 21.2633 7.08067 21.2633H11.4626C15.2849 21.2633 18.387 18.1619 18.387 14.3396C18.3941 9.99107 15.3523 6.35415 11.2801 5.44084C11.2966 5.29076 11.2695 5.1391 11.2019 5.00407L12.8851 3.0773L12.9938 2.9097C13.1206 2.63295 13.1531 2.32219 13.0861 2.0252C13.0192 1.72821 12.8565 1.46144 12.6231 1.26593C12.3898 1.07041 12.0987 0.956965 11.7945 0.943046C11.4904 0.929128 11.1901 1.0155 10.9399 1.18889L10.3412 0.478693C10.2069 0.328402 10.0424 0.208097 9.85852 0.125618C9.67461 0.0431388 9.47539 0.00033701 9.27384 1.98214e-06C9.07228 -0.000333046 8.87292 0.0418062 8.68874 0.123674C8.50457 0.205541 8.33971 0.325299 8.20491 0.475142L7.5778 1.1754C7.32821 0.998404 7.02724 0.908585 6.72146 0.919831C6.41569 0.931078 6.12214 1.04276 5.88621 1.23761C5.65029 1.43246 5.48514 1.69962 5.41632 1.99776C5.34749 2.29591 5.37881 2.60842 5.50545 2.88697V2.88697ZM8.20349 3.87059L6.99899 2.47861C7.27882 2.61344 7.59545 2.65173 7.89936 2.58748C8.20326 2.52323 8.4773 2.36007 8.67861 2.12351L9.24677 1.38632L9.87742 2.13345C10.0741 2.36212 10.3393 2.52113 10.6337 2.58678C10.928 2.65244 11.2357 2.62122 11.5109 2.49778L10.3121 3.87059H8.20349V3.87059ZM1.57664 14.3389C1.57664 10.0862 5.02252 6.64036 9.27517 6.64036C13.5278 6.64036 16.9737 10.0862 16.9666 14.3375V14.3389C16.966 15.7985 16.386 17.1981 15.3539 18.2302C14.3218 19.2623 12.9222 19.8423 11.4626 19.8429H7.08067C5.62108 19.8423 4.22144 19.2623 3.18936 18.2302C2.15728 17.1981 1.57721 15.7985 1.57664 14.3389V14.3389Z" fill="white"/>
</svg>
