<svg width="31" height="31" viewBox="0 0 31 31" fill="none" xmlns="http://www.w3.org/2000/svg">
<g clip-path="url(#clip0_34_685)">
<path fill-rule="evenodd" clip-rule="evenodd" d="M15.4535 0C11.3551 0.000513741 7.42477 1.62881 4.52679 4.52679C1.62881 7.42477 0.000513741 11.3551 0 15.4535C0 22.2774 4.45625 28.0608 10.5226 30.1475C11.2821 30.2424 11.5649 29.7678 11.5649 29.388V26.7336C7.3005 27.683 6.35306 24.6489 6.35306 24.6489C5.6885 22.847 4.64613 22.3723 4.64613 22.3723C3.224 21.4249 4.73913 21.4249 4.73913 21.4249C6.25619 21.5198 7.11063 23.0369 7.11063 23.0369C8.53275 25.4064 10.7124 24.7419 11.5669 24.3641C11.6599 23.3217 12.1346 22.6591 12.5143 22.2793C9.10044 21.8996 5.49863 20.5724 5.49863 14.5991C5.49863 12.8941 6.06631 11.5649 7.11063 10.4276C7.01375 10.1428 6.44606 8.53275 7.3005 6.44606C7.3005 6.44606 8.62769 6.06631 11.5649 8.05806C12.7972 7.67831 14.1263 7.58338 15.4535 7.58338C16.7807 7.58338 18.1079 7.77325 19.3401 8.05806C22.2793 6.06825 23.6065 6.44606 23.6065 6.44606C24.459 8.53275 23.8894 10.1428 23.7944 10.5226C24.8385 11.66 25.4143 13.15 25.4064 14.694C25.4064 20.6673 21.8027 21.8996 18.3927 22.2793C18.9604 22.7521 19.4351 23.6995 19.4351 25.1216V29.388C19.4351 29.7678 19.7179 30.2405 20.4774 30.1475C23.5503 29.1105 26.2196 27.1338 28.1078 24.497C29.9961 21.8602 31.0078 18.6967 31 15.4535C30.9051 6.92075 23.9862 0 15.4535 0Z" fill="black"/>
</g>
<defs>
<clipPath id="clip0_34_685">
<rect width="31" height="31" fill="white"/>
</clipPath>
</defs>
</svg>
