<svg width="59" height="16" viewBox="0 0 59 16" fill="none" xmlns="http://www.w3.org/2000/svg">
<path fill-rule="evenodd" clip-rule="evenodd" d="M24.4798 13.2519H24.4534C24.4653 13.2519 24.4732 13.2651 24.4851 13.2664H24.4931L24.4798 13.2532V13.2519ZM24.4851 13.2664C24.3623 13.2677 24.0531 13.3325 23.7268 13.3325C22.6964 13.3325 22.3397 12.8568 22.3397 12.2359V8.09914H24.4402C24.5591 8.09914 24.6516 7.99344 24.6516 7.84811V5.60204C24.6516 5.48313 24.5459 5.37744 24.4402 5.37744H22.3397V2.58967C22.3397 2.48398 22.2736 2.41791 22.1547 2.41791H19.3012C19.1823 2.41791 19.1162 2.48398 19.1162 2.58967V5.45671C19.1162 5.45671 17.6762 5.81344 17.5837 5.82665C17.4781 5.85307 17.412 5.94556 17.412 6.05125V7.84811C17.412 7.99344 17.5177 8.09914 17.6366 8.09914H19.103V12.4327C19.103 15.6565 21.3489 15.9868 22.8813 15.9868C23.5815 15.9868 24.427 15.7622 24.5591 15.6961C24.6384 15.6697 24.678 15.5772 24.678 15.4847V13.5029C24.6798 13.4467 24.6613 13.3917 24.6259 13.348C24.5905 13.3044 24.5405 13.2749 24.4851 13.2651V13.2664ZM55.7897 10.3584C55.7897 7.96702 54.8253 7.64992 53.8081 7.75562C53.0155 7.80847 52.3813 8.20483 52.3813 8.20483V12.8555C52.3813 12.8555 53.0287 13.3047 53.9931 13.3311C55.3538 13.3708 55.7897 12.8819 55.7897 10.3584ZM59 10.147C59 14.6788 57.5336 15.9736 54.9707 15.9736C52.8041 15.9736 51.6415 14.877 51.6415 14.877C51.6415 14.877 51.5887 15.4847 51.5226 15.564C51.483 15.6433 51.4169 15.6697 51.3377 15.6697H49.3824C49.2503 15.6697 49.1314 15.564 49.1314 15.4451L49.1579 0.766397C49.1579 0.647487 49.2635 0.54179 49.3824 0.54179H52.1964C52.3153 0.54179 52.421 0.647487 52.421 0.766397V5.74738C52.421 5.74738 53.5043 5.04713 55.0896 5.04713L55.0764 5.02071C56.6617 5.02071 59 5.61525 59 10.147V10.147ZM47.4801 5.37744H44.7058C44.5605 5.37744 44.4812 5.48313 44.4812 5.62847V12.8159C44.4812 12.8159 43.7546 13.3311 42.7638 13.3311C41.773 13.3311 41.4823 12.8819 41.4823 11.891V5.61525C41.4823 5.49634 41.3766 5.39065 41.2577 5.39065H38.4306C38.3117 5.39065 38.206 5.49634 38.206 5.61525V12.3667C38.206 15.2733 39.8309 16 42.0636 16C43.8999 16 45.3927 14.9827 45.3927 14.9827C45.3927 14.9827 45.4588 15.4979 45.4984 15.5772C45.5249 15.6433 45.6173 15.6961 45.7098 15.6961H47.4801C47.6254 15.6961 47.7047 15.5904 47.7047 15.4715L47.7311 5.60204C47.7311 5.48313 47.6254 5.37744 47.4801 5.37744V5.37744ZM16.1702 5.36422H13.3562C13.2373 5.36422 13.1317 5.48313 13.1317 5.62847V15.3262C13.1317 15.5904 13.3034 15.6829 13.528 15.6829H16.0645C16.3287 15.6829 16.3948 15.564 16.3948 15.3262V5.58883C16.3948 5.46992 16.2891 5.36422 16.1702 5.36422V5.36422ZM14.783 0.898518C13.7658 0.898518 12.9599 1.70446 12.9599 2.72179C12.9599 3.73913 13.7658 4.54507 14.783 4.54507C15.7738 4.54507 16.5797 3.73913 16.5797 2.72179C16.5797 1.70446 15.7738 0.898518 14.783 0.898518ZM36.5678 0.568215H33.7803C33.6614 0.568215 33.5558 0.673912 33.5558 0.792821V6.19659H29.1829V0.792821C29.1829 0.673912 29.0773 0.568215 28.9584 0.568215H26.1444C26.0255 0.568215 25.9198 0.673912 25.9198 0.792821V15.4715C25.9198 15.5904 26.0387 15.6961 26.1444 15.6961H28.9584C29.0773 15.6961 29.1829 15.5904 29.1829 15.4715V9.19575H33.5558L33.5293 15.4715C33.5293 15.5904 33.635 15.6961 33.7539 15.6961H36.5678C36.6867 15.6961 36.7924 15.5904 36.7924 15.4715V0.792821C36.7924 0.673912 36.6867 0.568215 36.5678 0.568215V0.568215ZM11.6388 7.06859V14.6524C11.6388 14.7052 11.6256 14.7977 11.5596 14.8241C11.5596 14.8241 9.9082 16 7.18674 16C3.89722 16 0 14.9695 0 8.17841C0 1.38737 3.40842 -0.0131199 6.73757 9.22067e-05C9.61755 9.22067e-05 10.7801 0.647487 10.9651 0.766397C11.0179 0.832457 11.0443 0.885306 11.0443 0.951367L10.4895 3.30313C10.4895 3.42204 10.3706 3.56737 10.2253 3.52774C9.74966 3.3824 9.03627 3.09173 7.35849 3.09173C5.41648 3.09173 3.32915 3.64664 3.32915 8.01986C3.32915 12.3931 5.31079 12.9084 6.73757 12.9084C7.95298 12.9084 8.38894 12.763 8.38894 12.763V9.72423H6.44693C6.30161 9.72423 6.19592 9.61853 6.19592 9.49962V7.06859C6.19592 6.94968 6.30161 6.84398 6.44693 6.84398H11.3878C11.5331 6.84398 11.6388 6.94968 11.6388 7.06859Z" fill="black"/>
</svg>
