<svg width="341" height="64" viewBox="0 0 341 64" fill="none" xmlns="http://www.w3.org/2000/svg">
<g clip-path="url(#clip0_138_2404)">
<path d="M295.837 16.75C297.894 16.75 299.819 17.4253 301.511 18.698C303.28 20.0227 304.243 22.1007 304.451 24.5947C304.461 24.6282 304.457 24.6642 304.442 24.6953C304.426 24.7265 304.399 24.7506 304.366 24.7627L304.295 24.776H300.288C300.229 24.776 300.171 24.7467 300.145 24.6993L300.131 24.646C299.662 21.036 295.267 20.0487 292.613 21.8153C290.765 23.062 290.401 25.9193 292.171 27.3733C292.864 27.9453 293.662 28.4013 294.471 28.842L296.614 30.0087L298.496 30.9747C299.435 31.458 300.366 31.958 301.251 32.5427C304.295 34.5687 305.308 37.634 304.761 41.036C304.139 44.5173 301.068 47.868 295.137 47.868C292.872 47.868 290.687 47.2447 288.684 45.738C286.551 44.1533 285.771 42.4133 285.771 39.27C285.771 39.212 285.815 39.1533 285.869 39.128L285.926 39.1147H290.27C290.348 39.1147 290.427 39.192 290.427 39.27C290.427 39.556 290.479 40.2053 290.583 40.5433C291.182 42.4133 292.898 43.608 295.111 43.738C297.14 43.868 299.168 42.7513 299.949 41.14C300.808 39.374 300.183 37.14 298.207 35.92L297.953 35.7653L297.014 35.228L295.882 34.608L290.417 31.724L290.085 31.5387L289.984 31.478C284.287 27.9447 285.25 16.75 295.838 16.75H295.837ZM321.803 17.3473C321.862 17.3473 321.921 17.3913 321.947 17.446L321.96 17.5033V29.192C321.96 29.296 322.06 29.3667 322.153 29.3373L322.22 29.296L333.693 17.3993C333.71 17.3805 333.73 17.3655 333.753 17.3553L333.798 17.3473H339.339C339.443 17.3473 339.513 17.4473 339.485 17.5407L339.443 17.6073L325.913 31.634C325.896 31.6529 325.884 31.6758 325.878 31.7006C325.872 31.7253 325.872 31.7513 325.878 31.776L325.913 31.8413L340.951 47.348C341.034 47.4107 341.001 47.54 340.931 47.602L340.873 47.6347H335.332L335.28 47.618L335.228 47.582L322.22 34.1793C322.158 34.096 322.029 34.1293 321.979 34.2127L321.959 34.2833V47.4787C321.959 47.5367 321.916 47.5953 321.861 47.6207L321.803 47.634H317.458C317.4 47.634 317.341 47.5907 317.315 47.536L317.302 47.4787V17.5033C317.302 17.4447 317.346 17.3867 317.4 17.3607L317.458 17.3473H321.803V17.3473ZM100.819 17.3213C100.871 17.3213 100.913 17.3333 100.941 17.364L100.976 17.4253L104.54 29.166C104.548 29.1924 104.562 29.2165 104.581 29.2358C104.601 29.2552 104.625 29.2693 104.652 29.2767C104.678 29.2842 104.706 29.2848 104.733 29.2785C104.76 29.2722 104.784 29.2592 104.805 29.2407L104.852 29.166L108.417 17.426C108.435 17.3875 108.465 17.356 108.503 17.3367L108.573 17.3213H115.155C115.213 17.3213 115.272 17.3653 115.297 17.42L115.311 17.4773V47.4533C115.311 47.5113 115.267 47.57 115.212 47.5953L115.155 47.6087H110.81C110.752 47.6087 110.693 47.5653 110.667 47.5107L110.654 47.4533V24.6733C110.654 24.5213 110.473 24.46 110.383 24.5493L110.341 24.6213L106.752 36.44L106.491 37.2707C106.473 37.3089 106.442 37.3401 106.405 37.3593L106.335 37.3747H103.005C102.953 37.3747 102.912 37.3633 102.883 37.3327L102.849 37.2707L102.589 36.44L98.9992 24.6213C98.9553 24.4913 98.7674 24.488 98.7062 24.5953L98.6862 24.6733V47.4533C98.6862 47.5113 98.6422 47.57 98.5876 47.5953L98.5303 47.6087H94.1853C94.1267 47.6087 94.068 47.5653 94.0427 47.5107L94.0294 47.4533V17.4773C94.0294 17.4187 94.0734 17.3607 94.128 17.3347L94.1853 17.3213H100.819V17.3213ZM226.973 17.3213C227.025 17.3213 227.066 17.3333 227.095 17.364L227.129 17.4253L230.694 29.166C230.702 29.1923 230.717 29.2162 230.736 29.2355C230.756 29.2548 230.78 29.2688 230.806 29.2762C230.833 29.2837 230.86 29.2843 230.887 29.2781C230.914 29.2719 230.939 29.259 230.959 29.2407L231.007 29.166L234.569 17.426C234.588 17.3875 234.618 17.356 234.656 17.3367L234.725 17.3213H241.334C241.393 17.3213 241.451 17.3653 241.477 17.42L241.49 17.4773V47.4533C241.49 47.5113 241.447 47.57 241.391 47.5953L241.334 47.6087H236.99C236.932 47.6087 236.873 47.5653 236.848 47.5107L236.834 47.4533V24.6733C236.834 24.5213 236.653 24.46 236.563 24.5493L236.522 24.6213L232.931 36.44L232.671 37.2707C232.653 37.309 232.622 37.3402 232.584 37.3593L232.515 37.3747H229.185C229.132 37.3747 229.091 37.3633 229.063 37.3327L229.028 37.2707L228.768 36.44L225.179 24.6213C225.135 24.4913 224.947 24.488 224.886 24.5953L224.866 24.6733V47.4533C224.866 47.5113 224.823 47.57 224.768 47.5953L224.71 47.6087H220.365C220.306 47.6087 220.247 47.5653 220.222 47.5107L220.209 47.4533V17.4773C220.209 17.4187 220.252 17.3607 220.307 17.3347L220.365 17.3213H226.973V17.3213ZM178.687 17.3213C178.718 17.3196 178.75 17.3283 178.776 17.3461C178.803 17.3639 178.823 17.3898 178.833 17.42L178.843 17.4773V21.2173C178.843 21.276 178.799 21.3347 178.744 21.36L178.687 21.3733H170.752V47.4533C170.752 47.5113 170.708 47.57 170.653 47.5953L170.595 47.6087H166.251C166.192 47.6087 166.134 47.5653 166.108 47.5107L166.095 47.4533V21.3733H158.159C158.1 21.3733 158.042 21.3293 158.016 21.2747L158.003 21.2173V17.4773C158.003 17.418 158.047 17.36 158.101 17.334L158.159 17.3207H178.685L178.687 17.3213ZM200.098 17.2173C200.15 17.2173 200.191 17.2287 200.22 17.2593L200.254 17.3213L208.423 47.4C208.432 47.4365 208.429 47.475 208.413 47.5094C208.398 47.5438 208.372 47.5722 208.339 47.59L208.267 47.608H204.314C204.27 47.6034 204.229 47.5847 204.198 47.5547L204.158 47.504L201.79 38.7507C201.772 38.7124 201.741 38.6812 201.704 38.662L201.634 38.6467H192.891C192.839 38.6467 192.798 38.658 192.77 38.6887L192.735 38.7507L190.368 47.504C190.35 47.5423 190.319 47.5735 190.281 47.5927L190.211 47.608H186.257C186.22 47.6074 186.184 47.594 186.155 47.5701C186.127 47.5463 186.107 47.5133 186.099 47.4767L186.101 47.4L194.27 17.3213C194.288 17.283 194.319 17.2519 194.357 17.2327L194.426 17.2173H200.097H200.098ZM267.532 17.2173C267.584 17.2173 267.625 17.2287 267.654 17.2593L267.689 17.3213L275.857 47.4C275.866 47.4366 275.863 47.4751 275.847 47.5095C275.832 47.5439 275.806 47.5723 275.772 47.59L275.7 47.608H271.748C271.725 47.6081 271.702 47.6035 271.681 47.5943C271.66 47.5851 271.641 47.5716 271.626 47.5547L271.591 47.504L269.224 38.7507C269.206 38.7124 269.175 38.6812 269.138 38.662L269.068 38.6467H260.326C260.274 38.6467 260.234 38.658 260.205 38.6887L260.17 38.7507L257.803 47.504C257.785 47.5423 257.755 47.5735 257.717 47.5927L257.647 47.608H253.692C253.655 47.6074 253.619 47.594 253.59 47.5701C253.561 47.5463 253.542 47.5133 253.534 47.4767L253.535 47.4L261.704 17.3213C261.722 17.283 261.753 17.2519 261.791 17.2327L261.861 17.2173H267.532H267.532ZM146.271 17.3473C146.329 17.3473 146.388 17.3913 146.413 17.446L146.426 17.5033V21.2433C146.426 21.302 146.383 21.3607 146.328 21.386L146.27 21.3993H133.106C133.047 21.3993 132.989 21.4433 132.963 21.498L132.95 21.5553V29.504C132.95 29.562 132.994 29.6207 133.049 29.646L133.106 29.6593H144.683C144.742 29.6593 144.8 29.7033 144.826 29.758L144.84 29.8153V33.5553C144.84 33.614 144.796 33.6727 144.741 33.698L144.683 33.7113H133.106C133.047 33.7113 132.989 33.7553 132.963 33.81L132.95 33.8673V43.1667C132.95 43.236 132.973 43.282 133.012 43.3133L133.08 43.3487H146.816C146.875 43.3487 146.934 43.392 146.96 43.4473L146.973 43.504V47.4527C146.973 47.5107 146.929 47.5693 146.874 47.5947L146.816 47.608H128.449C128.39 47.608 128.332 47.5647 128.307 47.5093L128.293 47.4527V17.5033C128.293 17.4447 128.337 17.3867 128.392 17.3607L128.449 17.3473H146.27H146.271ZM197.419 22.646C197.411 22.6196 197.397 22.5955 197.377 22.5762C197.358 22.5568 197.334 22.5427 197.307 22.5353C197.281 22.5278 197.253 22.5272 197.226 22.5335C197.199 22.5398 197.174 22.5528 197.154 22.5713L197.107 22.646L193.932 34.3607C193.912 34.4387 193.952 34.5167 194.016 34.5507L194.088 34.5687H200.437C200.474 34.5679 200.51 34.5545 200.538 34.5306C200.567 34.5067 200.587 34.4738 200.594 34.4373L200.593 34.3607L197.419 22.646V22.646ZM264.853 22.646C264.845 22.6196 264.831 22.5955 264.811 22.5762C264.792 22.5568 264.768 22.5427 264.741 22.5353C264.715 22.5278 264.687 22.5272 264.66 22.5335C264.633 22.5398 264.608 22.5528 264.588 22.5713L264.541 22.646L261.367 34.3607C261.347 34.4387 261.386 34.5167 261.45 34.5507L261.522 34.5687H267.871C267.908 34.568 267.944 34.5547 267.973 34.5308C268.002 34.5069 268.021 34.4739 268.029 34.4373L268.027 34.3607L264.853 22.646V22.646Z" fill="#161616"/>
<path d="M66.4418 0L37.2556 21.6167L42.683 8.87733L66.4418 0Z" fill="#E17726"/>
<path d="M1.64508 0.0253296L25.3399 8.87866L30.4935 21.7853L1.64508 0.0253296ZM54.6965 45.9727L67.5959 46.2187L63.0877 61.5487L47.3471 57.2107L54.6965 45.9727ZM13.3217 45.9727L20.6438 57.2107L4.9292 61.5493L0.448914 46.2187L13.3217 45.9727Z" fill="#E27625"/>
<path d="M29.7929 18.498L30.3204 35.5413L14.5451 34.8227L19.0321 28.0467L19.0893 27.9813L29.7929 18.498ZM38.0621 18.3073L48.9288 27.982L48.9854 28.0473L53.4724 34.8227L37.7011 35.5413L38.0621 18.3073ZM21.1054 46.022L29.7189 52.74L19.7134 57.5753L21.1054 46.022ZM46.9141 46.0213L48.2775 57.5753L38.2999 52.7393L46.9141 46.0213Z" fill="#E27625"/>
<path d="M38.5204 52.1067L48.6451 57.014L39.227 61.4947L39.3249 58.5333L38.5204 52.1067ZM29.4952 52.1087L28.7226 58.4847L28.7859 61.4913L19.3458 57.014L29.4952 52.1087Z" fill="#D5BFB2"/>
<path d="M26.5714 37.7653L29.2175 43.3313L20.2096 40.69L26.5714 37.7653ZM41.4462 37.766L47.8386 40.69L38.8014 43.3307L41.4462 37.766Z" fill="#233447"/>
<path d="M21.794 45.9653L20.3381 57.944L12.5338 46.2273L21.794 45.9653ZM46.2248 45.9653L55.4858 46.2273L47.6521 57.9447L46.2248 45.9653ZM53.7008 34.1453L46.9608 41.0207L41.7652 38.644L39.2769 43.8787L37.6465 34.8767L53.7008 34.1453ZM14.3147 34.1453L30.3716 34.8767L28.7406 43.8787L26.2523 38.6447L21.0834 41.0207L14.3147 34.1453Z" fill="#CC6228"/>
<path d="M13.8605 32.7347L21.485 40.4793L21.7494 48.1253L13.8605 32.7347ZM54.1657 32.7207L46.2628 48.1387L46.5598 40.4793L54.1657 32.7207ZM29.9987 33.206L30.3057 35.14L31.0643 39.9567L30.5768 54.75L28.2717 42.866L28.2711 42.7433L29.9987 33.206ZM38.0155 33.1793L39.7478 42.7433L39.7472 42.866L37.4368 54.78L37.3448 51.8L36.9845 39.8687L38.0155 33.1793Z" fill="#E27525"/>
<path d="M47.2378 40.1713L46.9801 46.8147L38.936 53.088L37.3102 51.938L39.1324 42.54L47.2378 40.1713ZM20.8083 40.172L28.8858 42.5407L30.708 51.938L29.0823 53.088L21.0381 46.814L20.8083 40.172Z" fill="#F5841F"/>
<path d="M17.8066 55.5473L28.0972 60.428L28.0539 58.3433L28.9151 57.5873H39.1004L39.9922 58.3413L39.9263 60.424L50.1523 55.5593L45.1765 59.6753L39.1597 63.812H28.8325L22.8197 59.658L17.8066 55.5473Z" fill="#C0AC9D"/>
<path d="M37.7831 51.4573L39.2383 52.486L40.0908 59.2953L38.8567 58.2527H29.1655L27.9547 59.3167L28.7799 52.4867L30.2351 51.4573H37.7831Z" fill="#161616"/>
<path d="M64.5149 0.598663L68.0182 11.1187L65.8303 21.756L67.3881 22.9593L65.2802 24.5693L66.8646 25.794L64.7667 27.7067L66.0548 28.6407L62.6361 32.6367L48.6151 28.5507L48.4939 28.4853L38.3905 19.954L64.5149 0.598663ZM3.50324 0.598663L29.6284 19.954L19.5242 28.4853L19.403 28.5507L5.38207 32.6367L1.96408 28.6407L3.25082 27.7073L1.15354 25.794L2.73533 24.5707L0.595418 22.956L2.2125 21.752L0 11.1193L3.50324 0.598663Z" fill="#763E1A"/>
<path d="M47.9292 27.6567L62.7853 31.9867L67.6119 46.876H54.879L46.1049 46.9867L52.4854 34.538L47.9292 27.6567ZM20.089 27.6567L15.5315 34.538L21.9133 46.9867L13.1438 46.876H0.432922L5.2329 31.9867L20.089 27.6567ZM43.4109 8.806L39.255 20.04L38.3732 35.2153L38.0362 39.972L38.0095 52.1233H30.0087L29.9827 39.9947L29.6444 35.2113L28.7619 20.04L24.6073 8.806H43.4109Z" fill="#F5841F"/>
</g>
<defs>
<clipPath id="clip0_138_2404">
<rect width="341" height="64" fill="white"/>
</clipPath>
</defs>
</svg>
