<svg width="40" height="37" viewBox="0 0 40 37" fill="none" xmlns="http://www.w3.org/2000/svg">
<g clip-path="url(#clip0_305_90)">
<path d="M39.0728 0L21.9092 12.5305L25.1009 5.14593L39.0728 0Z" fill="#E17726"/>
<path d="M0.967388 0.0147705L14.9019 5.14682L17.9325 12.6282L0.967388 0.0147705ZM32.1657 26.6489L39.7518 26.7914L37.1005 35.6778L27.8438 33.1632L32.1657 26.6489ZM7.83426 26.6489L12.14 33.1632L2.89895 35.678L0.263794 26.7914L7.83426 26.6489Z" fill="#E27625"/>
<path d="M17.5204 10.7227L17.8304 20.6021L8.55371 20.1857L11.1925 16.2579L11.2259 16.2201L17.5204 10.7227ZM22.3834 10.6124L28.774 16.2204L28.8071 16.258L31.4459 20.1859L22.1712 20.6021L22.3834 10.6124ZM12.4117 26.6777L17.477 30.5718L11.5929 33.3747L12.4117 26.6777ZM27.5892 26.6771L28.3909 33.3748L22.5232 30.5715L27.5892 26.6771Z" fill="#E27625"/>
<path d="M22.6528 30.2046L28.607 33.0493L23.0684 35.6464L23.1259 33.9299L22.6528 30.2046ZM17.3455 30.2058L16.8909 33.9018L16.9283 35.6444L11.3767 33.0493L17.3455 30.2058Z" fill="#D5BFB2"/>
<path d="M15.6261 21.8915L17.182 25.1179L11.8846 23.5867L15.6261 21.8915ZM24.3737 21.8918L28.1328 23.5867L22.8181 25.1174L24.3737 21.8918Z" fill="#233447"/>
<path d="M12.8165 26.6446L11.9603 33.5883L7.37073 26.7965L12.8165 26.6446ZM27.1837 26.6448L32.6296 26.7965L28.0229 33.5886L27.1837 26.6448ZM31.5799 19.793L27.6167 23.7783L24.5609 22.4005L23.0979 25.4352L22.1389 20.2168L31.5799 19.793ZM8.41791 19.793L17.8609 20.2168L16.9017 25.4352L15.4384 22.401L12.3989 23.7785L8.41791 19.793Z" fill="#CC6228"/>
<path d="M8.15088 18.9752L12.6349 23.4647L12.7903 27.8968L8.15088 18.9752ZM31.8535 18.9672L27.2057 27.9047L27.3807 23.4647L31.8535 18.9672ZM17.6417 19.2487L17.8221 20.3695L18.2681 23.1616L17.9813 31.7371L16.6259 24.8482L16.6254 24.7769L17.6417 19.2487ZM22.3559 19.2331L23.3748 24.7769L23.3743 24.8482L22.0154 31.7544L21.9617 30.0269L21.7496 23.1107L22.3559 19.2331Z" fill="#E27525"/>
<path d="M27.7794 23.2863L27.6277 27.137L22.8974 30.7734L21.9411 30.1067L23.013 24.6593L27.7794 23.2863ZM12.2371 23.2863L16.9869 24.6593L18.0588 30.1067L17.1025 30.7734L12.3721 27.1367L12.2371 23.2863Z" fill="#F5841F"/>
<path d="M10.4716 32.199L16.5234 35.0282L16.4978 33.82L17.0042 33.3814H22.9939L23.5186 33.8185L23.4798 35.0258L29.4934 32.2061L26.5672 34.592L23.0289 36.9897H16.9556L13.4197 34.5821L10.4716 32.199Z" fill="#C0AC9D"/>
<path d="M22.2194 29.828L23.075 30.4245L23.5765 34.3718L22.8508 33.7673H17.1515L16.4396 34.3839L16.9246 30.4248L17.7805 29.828H22.2194Z" fill="#161616"/>
<path d="M37.9397 0.346924L40 6.4453L38.7133 12.6115L39.6295 13.3088L38.3897 14.2421L39.3216 14.9522L38.0877 16.0608L38.8452 16.6021L36.8348 18.9186L28.5895 16.5498L28.5181 16.5121L22.5764 11.5667L37.9397 0.346924ZM2.06031 0.346924L17.4238 11.5667L11.4819 16.5121L11.4105 16.5498L3.16516 18.9186L1.15484 16.6021L1.91172 16.0613L0.678594 14.9522L1.60859 14.2429L0.350156 13.3069L1.30094 12.6092L0 6.4456L2.06031 0.346924Z" fill="#763E1A"/>
<path d="M28.1863 16.0318L36.9227 18.5414L39.761 27.1726H32.2728L27.1135 27.2368L30.8657 20.0205L28.1863 16.0318ZM11.8138 16.0318L9.13394 20.0205L12.8866 27.2368L7.72957 27.1726H0.254883L3.07723 18.5416L11.8138 16.0318ZM25.5288 5.10474L23.0852 11.6166L22.5666 20.4133L22.3682 23.1706L22.3524 30.2142H17.6475L17.6322 23.1839L17.4332 20.411L16.9144 11.6166L14.4711 5.10474H25.5288Z" fill="#F5841F"/>
</g>
<defs>
<clipPath id="clip0_305_90">
<rect width="40" height="37" fill="white"/>
</clipPath>
</defs>
</svg>
