<svg width="20" height="19" viewBox="0 0 20 19" fill="none" xmlns="http://www.w3.org/2000/svg">
<path d="M6.66667 1.35714C7.32594 1.35714 7.9704 1.55613 8.51857 1.92894C9.06673 2.30175 9.49397 2.83165 9.74627 3.45161C9.99856 4.07157 10.0646 4.75376 9.93595 5.41191C9.80733 6.07006 9.48986 6.67461 9.02369 7.14911C8.55751 7.62361 7.96357 7.94675 7.31697 8.07766C6.67036 8.20858 6.00014 8.14139 5.39106 7.88459C4.78197 7.62779 4.26137 7.19292 3.8951 6.63497C3.52883 6.07702 3.33333 5.42104 3.33333 4.75C3.33333 3.85016 3.68452 2.98717 4.30964 2.35089C4.93477 1.7146 5.78261 1.35714 6.66667 1.35714M6.66667 0C5.74369 0 4.84144 0.278583 4.07401 0.800519C3.30658 1.32246 2.70844 2.0643 2.35523 2.93225C2.00202 3.8002 1.9096 4.75527 2.08967 5.67668C2.26973 6.59809 2.71419 7.44446 3.36684 8.10876C4.01948 8.77306 4.851 9.22545 5.75625 9.40873C6.66149 9.59201 7.5998 9.49794 8.45252 9.13843C9.30525 8.77891 10.0341 8.17009 10.5469 7.38896C11.0596 6.60782 11.3333 5.68946 11.3333 4.75C11.3333 3.49022 10.8417 2.28204 9.9665 1.39124C9.09133 0.500445 7.90434 0 6.66667 0V0ZM13.3333 19H12V15.6071C12 14.7073 11.6488 13.8443 11.0237 13.208C10.3986 12.5717 9.55072 12.2143 8.66667 12.2143H4.66667C3.78261 12.2143 2.93477 12.5717 2.30964 13.208C1.68452 13.8443 1.33333 14.7073 1.33333 15.6071V19H0V15.6071C0 14.3474 0.491665 13.1392 1.36683 12.2484C2.242 11.3576 3.42899 10.8571 4.66667 10.8571H8.66667C9.90434 10.8571 11.0913 11.3576 11.9665 12.2484C12.8417 13.1392 13.3333 14.3474 13.3333 15.6071V19ZM13.3333 1.35714H20V2.71429H13.3333V1.35714ZM13.3333 4.75H20V6.10714H13.3333V4.75ZM13.3333 8.14286H18V9.5H13.3333V8.14286Z" fill="black"/>
</svg>
