<svg width="18" height="20" viewBox="0 0 18 20" fill="none" xmlns="http://www.w3.org/2000/svg">
<path d="M0.800049 2.60005C0.800049 1.99005 1.05291 1.40504 1.50299 0.973703C1.95308 0.542369 2.56353 0.300049 3.20005 0.300049H12.8C13.4366 0.300049 14.047 0.542369 14.4971 0.973703C14.9472 1.40504 15.2 1.99005 15.2 2.60005V13.9655L14 15.127V2.60005C14 2.29505 13.8736 2.00254 13.6486 1.78688C13.4235 1.57121 13.1183 1.45005 12.8 1.45005H3.20005C2.88179 1.45005 2.57656 1.57121 2.35152 1.78688C2.12648 2.00254 2.00005 2.29505 2.00005 2.60005V16.4C2.00005 16.705 2.12648 16.9976 2.35152 17.2132C2.57656 17.4289 2.88179 17.55 3.20005 17.55H8.10205C8.18725 17.78 8.32405 17.9974 8.51485 18.1825L9.04405 18.7H3.20005C2.56353 18.7 1.95308 18.4577 1.50299 18.0264C1.05291 17.5951 0.800049 17.01 0.800049 16.4V2.60005ZM5.60005 4.32505C5.60005 4.63005 5.47362 4.92255 5.24858 5.13822C5.02353 5.35389 4.71831 5.47505 4.40005 5.47505C4.08179 5.47505 3.77656 5.35389 3.55152 5.13822C3.32648 4.92255 3.20005 4.63005 3.20005 4.32505C3.20005 4.02005 3.32648 3.72754 3.55152 3.51188C3.77656 3.29621 4.08179 3.17505 4.40005 3.17505C4.71831 3.17505 5.02353 3.29621 5.24858 3.51188C5.47362 3.72754 5.60005 4.02005 5.60005 4.32505V4.32505ZM7.40005 3.75005C7.24092 3.75005 7.08831 3.81063 6.97578 3.91846C6.86326 4.0263 6.80005 4.17255 6.80005 4.32505C6.80005 4.47755 6.86326 4.6238 6.97578 4.73164C7.08831 4.83947 7.24092 4.90005 7.40005 4.90005H12.2C12.3592 4.90005 12.5118 4.83947 12.6243 4.73164C12.7368 4.6238 12.8 4.47755 12.8 4.32505C12.8 4.17255 12.7368 4.0263 12.6243 3.91846C12.5118 3.81063 12.3592 3.75005 12.2 3.75005H7.40005ZM7.40005 8.35005C7.24092 8.35005 7.08831 8.41063 6.97578 8.51846C6.86326 8.6263 6.80005 8.77255 6.80005 8.92505C6.80005 9.07755 6.86326 9.2238 6.97578 9.33164C7.08831 9.43947 7.24092 9.50005 7.40005 9.50005H12.2C12.3592 9.50005 12.5118 9.43947 12.6243 9.33164C12.7368 9.2238 12.8 9.07755 12.8 8.92505C12.8 8.77255 12.7368 8.6263 12.6243 8.51846C12.5118 8.41063 12.3592 8.35005 12.2 8.35005H7.40005ZM6.80005 13.525C6.80005 13.3725 6.86326 13.2263 6.97578 13.1185C7.08831 13.0106 7.24092 12.95 7.40005 12.95H12.2C12.3592 12.95 12.5118 13.0106 12.6243 13.1185C12.7368 13.2263 12.8 13.3725 12.8 13.525C12.8 13.6775 12.7368 13.8238 12.6243 13.9316C12.5118 14.0395 12.3592 14.1 12.2 14.1H7.40005C7.24092 14.1 7.08831 14.0395 6.97578 13.9316C6.86326 13.8238 6.80005 13.6775 6.80005 13.525ZM4.40005 10.075C4.71831 10.075 5.02353 9.95389 5.24858 9.73822C5.47362 9.52255 5.60005 9.23005 5.60005 8.92505C5.60005 8.62005 5.47362 8.32754 5.24858 8.11188C5.02353 7.89621 4.71831 7.77505 4.40005 7.77505C4.08179 7.77505 3.77656 7.89621 3.55152 8.11188C3.32648 8.32754 3.20005 8.62005 3.20005 8.92505C3.20005 9.23005 3.32648 9.52255 3.55152 9.73822C3.77656 9.95389 4.08179 10.075 4.40005 10.075ZM4.40005 14.675C4.71831 14.675 5.02353 14.5539 5.24858 14.3382C5.47362 14.1226 5.60005 13.83 5.60005 13.525C5.60005 13.22 5.47362 12.9275 5.24858 12.7119C5.02353 12.4962 4.71831 12.375 4.40005 12.375C4.08179 12.375 3.77656 12.4962 3.55152 12.7119C3.32648 12.9275 3.20005 13.22 3.20005 13.525C3.20005 13.83 3.32648 14.1226 3.55152 14.3382C3.77656 14.5539 4.08179 14.675 4.40005 14.675ZM17.426 15.0798C17.535 14.971 17.5949 14.8255 17.5929 14.6746C17.5909 14.5238 17.5271 14.3798 17.4154 14.2736C17.3036 14.1674 17.1528 14.1076 16.9954 14.1069C16.8381 14.1063 16.6867 14.165 16.574 14.2702L12.2024 18.5022L10.2284 16.5725C10.1736 16.5174 10.1079 16.4732 10.035 16.4426C9.96222 16.412 9.88378 16.3956 9.80427 16.3943C9.72477 16.393 9.64579 16.4068 9.57193 16.435C9.49806 16.4632 9.43079 16.5052 9.37401 16.5586C9.31723 16.6119 9.27208 16.6756 9.24119 16.7458C9.21029 16.816 9.19427 16.8914 9.19405 16.9676C9.19383 17.0438 9.20942 17.1193 9.23991 17.1897C9.2704 17.26 9.31518 17.3239 9.37165 17.3775L11.6864 19.6407C11.7533 19.7061 11.833 19.758 11.921 19.7936C12.009 19.8291 12.1035 19.8475 12.1989 19.8477C12.2944 19.848 12.389 19.83 12.4772 19.7948C12.5653 19.7597 12.6453 19.7081 12.7124 19.643L17.426 15.0798V15.0798Z" fill="black"/>
</svg>
