<svg width="18" height="9" viewBox="0 0 18 9" fill="none" xmlns="http://www.w3.org/2000/svg">
<path d="M16.7125 9C16.4122 9.00058 16.1212 8.89607 15.89 8.7046L9.00126 2.95076L2.09968 8.4991C1.96822 8.60579 1.81696 8.68546 1.65458 8.73353C1.49221 8.78161 1.32193 8.79714 1.15353 8.77924C0.985134 8.76134 0.821936 8.71035 0.673318 8.62922C0.524701 8.54808 0.393595 8.43839 0.287536 8.30645C0.180778 8.17508 0.101055 8.02392 0.0529475 7.86166C0.00483982 7.69939 -0.0107033 7.52923 0.0072115 7.36095C0.0251263 7.19266 0.0761457 7.02957 0.157337 6.88106C0.238529 6.73254 0.348292 6.60152 0.480317 6.49553L8.19158 0.292172C8.42155 0.103269 8.71 0 9.00769 0C9.30538 0 9.59383 0.103269 9.8238 0.292172L17.5351 6.71387C17.6652 6.82169 17.7728 6.95411 17.8516 7.10354C17.9305 7.25297 17.9791 7.41647 17.9946 7.58469C18.0101 7.75291 17.9922 7.92254 17.9421 8.08385C17.8919 8.24517 17.8104 8.39501 17.7021 8.52479C17.5825 8.67212 17.4318 8.79115 17.2607 8.87331C17.0896 8.95548 16.9024 8.99874 16.7125 9Z" fill="#FF7B89"/>
</svg>
