<svg width="25" height="11" viewBox="0 0 25 11" fill="none" xmlns="http://www.w3.org/2000/svg">
<path d="M12.5197 0.00371517C12.9362 0.0029982 13.3398 0.130807 13.6605 0.364956L24.3561 8.21804C24.7201 8.48464 24.9491 8.86773 24.9925 9.28304C25.036 9.69835 24.8904 10.1119 24.5878 10.4326C24.2853 10.7534 23.8505 10.9551 23.3791 10.9934C22.9077 11.0316 22.4384 10.9034 22.0744 10.6368L12.5197 3.60043L2.96496 10.3855C2.78262 10.516 2.57282 10.6134 2.34761 10.6722C2.1224 10.731 1.88622 10.75 1.65265 10.7281C1.41908 10.7062 1.19272 10.6438 0.986586 10.5446C0.780452 10.4454 0.598607 10.3112 0.451503 10.1499C0.288253 9.98841 0.164614 9.79895 0.088332 9.59339C0.0120501 9.38784 -0.0152286 9.17063 0.00820022 8.95535C0.031629 8.74008 0.105261 8.53139 0.224486 8.34235C0.343712 8.15332 0.505962 7.98801 0.701068 7.8568L11.3966 0.27072C11.7266 0.0735825 12.122 -0.0204266 12.5197 0.00371517V0.00371517Z" fill="#FF7B89"/>
</svg>
